                <svg class="home__blob" id="visual" viewBox="0 0 500 500" xmlns="http://www.w3.org/2000/svg" xmlns:xlink="http://www.w3.org/1999/xlink" version="1.1">
                    <mask id="mask0" mask-type="alpha" transform="translate(301.55568717586584 191.8324817837919)">
                        <path d="M135.1 -103.4C172.5 -60.9 198.4 -4.9 195.5 59.4C192.6 123.6 160.9 196.1 96.9 242.9C32.8 289.8 -63.6 311.1 -146.1 280.3C-228.6 249.5 -297.1 166.4 -298.8 88.4C-300.5 10.3 -235.5 -62.8 -174.6 -110.7C-113.6 -158.6 -56.8 -181.3 -4 -178.1C48.9 -175 97.7 -145.9 135.1 -103.4" fill="#000000">    
                            </path>                                
                        </mask>
                        <g mask="url(#mask0)" transform="translate(301.55568717586584 191.8324817837919)">
                            <path d="M135.1 -103.4C172.5 -60.9 198.4 -4.9 195.5 59.4C192.6 123.6 160.9 196.1 96.9 242.9C32.8 289.8 -63.6 311.1 -146.1 280.3C-228.6 249.5 -297.1 166.4 -298.8 88.4C-300.5 10.3 -235.5 -62.8 -174.6 -110.7C-113.6 -158.6 -56.8 -181.3 -4 -178.1C48.9 -175 97.7 -145.9 135.1 -103.4" fill="#000000">    
                            </path>                               
                        </g>
                    </svg>