<?xml version="1.0" encoding="utf-8"?>
<svg xmlns="http://www.w3.org/2000/svg" xmlns:xlink="http://www.w3.org/1999/xlink" version= "1.1" width="1910px" height="1172px" viewBox="2 0 1910 1172">
<g id="layer1">
<g style="fill:rgb(0,0,0); fill-opacity:1.0; stroke-linejoin: miter">
<path d="M244.71478,99.19345L244.71478,99.19345L809.28534,439.44177C848.58844,463.12848,861.24786,514.1916,837.56134,553.4945C813.8746,592.7974,762.8116,605.45703,723.5087,581.7703L723.5087,581.7703L158.93805,241.52185C119.63519,217.83527,106.97565,166.77222,130.6623,127.4693C154.34888,88.16638,205.41187,75.506836,244.71478,99.19345 Z"/>
</g>
<g style="fill:rgb(0,0,0); fill-opacity:1.0; stroke-linejoin: miter">
<path d="M830.6877,599.5417L830.6877,599.5417L282.50977,1069.4469C247.66962,1099.3123,195.21552,1095.2794,165.35016,1060.4393C135.4848,1025.5992,139.51752,973.1449,174.35767,943.27966L174.35767,943.27966L722.5356,473.3744C757.3757,443.50903,809.8299,447.54187,839.69525,482.38196C869.5606,517.222,865.5278,569.67633,830.6877,599.5417 Z"/>
</g>
<g style="fill:rgb(0,0,0); fill-opacity:1.0; stroke-linejoin: miter">
<path d="M865.4426,837.90533L865.4426,837.90533L1276.298,478.28522C1310.8276,448.0615,1363.3207,451.5522,1393.5444,486.08188C1423.7682,520.6116,1420.2773,573.1046,1385.7477,603.3283L1385.7477,603.3283L974.89233,962.9484C940.3626,993.1721,887.8696,989.68146,857.64594,955.15173C827.42224,920.622,830.9129,868.129,865.4426,837.90533 Z"/>
</g>
<g style="fill:rgb(0,0,0); fill-opacity:1.0; stroke-linejoin: miter">
<path d="M1110.9678,445.34738L1110.9678,445.34738L907.63983,326.14755C868.05237,302.93964,854.7742,252.03394,877.9821,212.44649C901.19006,172.85904,952.0957,159.58081,991.68317,182.78873L991.68317,182.78873L1195.011,301.98856C1234.5984,325.19647,1247.8767,376.1022,1224.6688,415.68964C1201.4609,455.27707,1150.5552,468.5553,1110.9678,445.34738 Z"/>
</g>
<g style="fill:rgb(0,0,0); fill-opacity:1.0; stroke-linejoin: miter">
<path d="M1684.0559,526.7781L1684.0559,526.7781L1521.3599,422.49765C1482.7258,397.73508,1471.4807,346.34198,1496.2433,307.70795C1521.0059,269.0739,1572.3989,257.8289,1611.033,282.59146L1611.033,282.59146L1773.729,386.87186C1812.363,411.63443,1823.6082,463.02753,1798.8456,501.66156C1774.083,540.2956,1722.69,551.54065,1684.0559,526.7781 Z"/>
</g>
<g style="fill:rgb(0,0,0); fill-opacity:1.0; stroke-linejoin: miter">
<path d="M282.40857,176.32248L282.40857,176.32248L313.81598,999.131C315.5663,1044.9863,279.8122,1083.5782,233.95688,1085.3286C188.10156,1087.079,149.50955,1051.3248,147.75922,1005.4695L147.75922,1005.4695L116.3518,182.66104C114.601456,136.80573,150.35559,98.213715,196.2109,96.46337C242.06622,94.71303,280.65823,130.46716,282.40857,176.32248 Z"/>
</g>
<g style="fill:rgb(0,0,0); fill-opacity:1.0; stroke-linejoin: miter">
<path d="M-2233.7754,-1070.6228L-2233.7754,-1070.6228L-2233.775,-1070.6198C-2226.4888,-1025.3132,-2257.3105,-982.67834,-2302.617,-975.3922C-2347.9236,-968.106,-2390.5583,-998.9276,-2397.8447,-1044.2343L-2397.8447,-1044.2343L-2397.8452,-1044.2373C-2405.1313,-1089.5438,-2374.3096,-1132.1787,-2329.0032,-1139.4648C-2283.6965,-1146.751,-2241.0618,-1115.9294,-2233.7754,-1070.6228 Z"/>
</g>
<g style="fill:rgb(0,0,0); fill-opacity:1.0; stroke-linejoin: miter">
<path d="M-2233.0164,-1064.424L-2233.0164,-1064.424L-2233.016,-1064.4209C-2229.1533,-1018.695,-2263.0903,-978.4956,-2308.8162,-974.63293C-2354.542,-970.7704,-2394.7415,-1004.7072,-2398.604,-1050.4331L-2398.604,-1050.4331L-2398.6042,-1050.4362C-2402.4668,-1096.162,-2368.53,-1136.3615,-2322.8042,-1140.224C-2277.0784,-1144.0867,-2236.879,-1110.1498,-2233.0164,-1064.424 Z"/>
</g>
<g style="fill:rgb(0,0,0); fill-opacity:1.0; stroke-linejoin: miter">
<path d="M-2981.8486,-6361.1562L-2981.8486,-6361.1562L-2981.8486,-6361.1523C-2981.8486,-6315.2637,-3019.0488,-6278.0635,-3064.9375,-6278.0635C-3110.8262,-6278.0635,-3148.0264,-6315.2637,-3148.0264,-6361.1523L-3148.0264,-6361.1523L-3148.0264,-6361.1562C-3148.0264,-6407.045,-3110.8262,-6444.245,-3064.9375,-6444.245C-3019.0488,-6444.245,-2981.8486,-6407.045,-2981.8486,-6361.1562 Z"/>
</g>
</g>
</svg>